<mxfile host="Electron" modified="2023-12-11T12:10:12.227Z" agent="Mozilla/5.0 (Windows NT 10.0; Win64; x64) AppleWebKit/537.36 (KHTML, like Gecko) draw.io/21.8.2 Chrome/114.0.5735.289 Electron/25.8.1 Safari/537.36" etag="jTSp99XwjcwuU9BSy0yT" version="21.8.2" type="device">
  <diagram id="C5RBs43oDa-KdzZeNtuy" name="Page-1">
    <mxGraphModel dx="1085" dy="1183" grid="1" gridSize="10" guides="1" tooltips="1" connect="1" arrows="1" fold="1" page="1" pageScale="1" pageWidth="827" pageHeight="1169" math="0" shadow="0">
      <root>
        <mxCell id="WIyWlLk6GJQsqaUBKTNV-0" />
        <mxCell id="WIyWlLk6GJQsqaUBKTNV-1" parent="WIyWlLk6GJQsqaUBKTNV-0" />
        <mxCell id="9uUAbHtgEVjqh5BdNgfr-31" style="edgeStyle=orthogonalEdgeStyle;rounded=0;orthogonalLoop=1;jettySize=auto;html=1;exitX=0.5;exitY=1;exitDx=0;exitDy=0;entryX=0.5;entryY=0;entryDx=0;entryDy=0;" edge="1" parent="WIyWlLk6GJQsqaUBKTNV-1" source="9uUAbHtgEVjqh5BdNgfr-19" target="9uUAbHtgEVjqh5BdNgfr-22">
          <mxGeometry relative="1" as="geometry" />
        </mxCell>
        <mxCell id="9uUAbHtgEVjqh5BdNgfr-19" value="start" style="ellipse;whiteSpace=wrap;html=1;" vertex="1" parent="WIyWlLk6GJQsqaUBKTNV-1">
          <mxGeometry x="260" y="150" width="120" height="80" as="geometry" />
        </mxCell>
        <mxCell id="9uUAbHtgEVjqh5BdNgfr-20" value="&amp;nbsp;int i = 1;" style="rounded=1;whiteSpace=wrap;html=1;" vertex="1" parent="WIyWlLk6GJQsqaUBKTNV-1">
          <mxGeometry x="260" y="400" width="120" height="60" as="geometry" />
        </mxCell>
        <mxCell id="9uUAbHtgEVjqh5BdNgfr-52" style="edgeStyle=orthogonalEdgeStyle;rounded=0;orthogonalLoop=1;jettySize=auto;html=1;exitX=0.5;exitY=1;exitDx=0;exitDy=0;entryX=0.5;entryY=0;entryDx=0;entryDy=0;" edge="1" parent="WIyWlLk6GJQsqaUBKTNV-1" source="9uUAbHtgEVjqh5BdNgfr-21" target="9uUAbHtgEVjqh5BdNgfr-20">
          <mxGeometry relative="1" as="geometry" />
        </mxCell>
        <mxCell id="9uUAbHtgEVjqh5BdNgfr-21" value="int n = Convert.ToInt32(Console.ReadLine());" style="rounded=1;whiteSpace=wrap;html=1;" vertex="1" parent="WIyWlLk6GJQsqaUBKTNV-1">
          <mxGeometry x="210" y="320" width="230" height="60" as="geometry" />
        </mxCell>
        <mxCell id="9uUAbHtgEVjqh5BdNgfr-32" style="edgeStyle=orthogonalEdgeStyle;rounded=0;orthogonalLoop=1;jettySize=auto;html=1;exitX=0.5;exitY=1;exitDx=0;exitDy=0;" edge="1" parent="WIyWlLk6GJQsqaUBKTNV-1" source="9uUAbHtgEVjqh5BdNgfr-22" target="9uUAbHtgEVjqh5BdNgfr-21">
          <mxGeometry relative="1" as="geometry" />
        </mxCell>
        <mxCell id="9uUAbHtgEVjqh5BdNgfr-22" value="&amp;nbsp;Console.WriteLine(&quot;KUJUU&quot;);" style="rounded=1;whiteSpace=wrap;html=1;" vertex="1" parent="WIyWlLk6GJQsqaUBKTNV-1">
          <mxGeometry x="240" y="240" width="170" height="60" as="geometry" />
        </mxCell>
        <mxCell id="9uUAbHtgEVjqh5BdNgfr-49" style="edgeStyle=orthogonalEdgeStyle;rounded=0;orthogonalLoop=1;jettySize=auto;html=1;exitX=0;exitY=0.5;exitDx=0;exitDy=0;entryX=1;entryY=0.5;entryDx=0;entryDy=0;" edge="1" parent="WIyWlLk6GJQsqaUBKTNV-1" source="9uUAbHtgEVjqh5BdNgfr-23" target="9uUAbHtgEVjqh5BdNgfr-30">
          <mxGeometry relative="1" as="geometry" />
        </mxCell>
        <mxCell id="9uUAbHtgEVjqh5BdNgfr-23" value="&amp;nbsp;while (i &amp;lt;= n)&amp;nbsp;" style="rhombus;whiteSpace=wrap;html=1;" vertex="1" parent="WIyWlLk6GJQsqaUBKTNV-1">
          <mxGeometry x="310" y="490" width="90" height="80" as="geometry" />
        </mxCell>
        <mxCell id="9uUAbHtgEVjqh5BdNgfr-55" style="edgeStyle=orthogonalEdgeStyle;rounded=0;orthogonalLoop=1;jettySize=auto;html=1;exitX=0.5;exitY=1;exitDx=0;exitDy=0;entryX=0.5;entryY=0;entryDx=0;entryDy=0;" edge="1" parent="WIyWlLk6GJQsqaUBKTNV-1" source="9uUAbHtgEVjqh5BdNgfr-24" target="9uUAbHtgEVjqh5BdNgfr-25">
          <mxGeometry relative="1" as="geometry" />
        </mxCell>
        <mxCell id="9uUAbHtgEVjqh5BdNgfr-24" value="&amp;nbsp;Console.WriteLine();" style="rounded=1;whiteSpace=wrap;html=1;" vertex="1" parent="WIyWlLk6GJQsqaUBKTNV-1">
          <mxGeometry x="300" y="590" width="120" height="60" as="geometry" />
        </mxCell>
        <mxCell id="9uUAbHtgEVjqh5BdNgfr-56" style="edgeStyle=orthogonalEdgeStyle;rounded=0;orthogonalLoop=1;jettySize=auto;html=1;exitX=0.5;exitY=1;exitDx=0;exitDy=0;" edge="1" parent="WIyWlLk6GJQsqaUBKTNV-1" source="9uUAbHtgEVjqh5BdNgfr-25" target="9uUAbHtgEVjqh5BdNgfr-27">
          <mxGeometry relative="1" as="geometry" />
        </mxCell>
        <mxCell id="9uUAbHtgEVjqh5BdNgfr-25" value="&amp;nbsp;int j = 1;" style="rounded=1;whiteSpace=wrap;html=1;" vertex="1" parent="WIyWlLk6GJQsqaUBKTNV-1">
          <mxGeometry x="300" y="670" width="120" height="60" as="geometry" />
        </mxCell>
        <mxCell id="9uUAbHtgEVjqh5BdNgfr-64" style="edgeStyle=orthogonalEdgeStyle;rounded=0;orthogonalLoop=1;jettySize=auto;html=1;exitX=0.5;exitY=1;exitDx=0;exitDy=0;entryX=0.5;entryY=0;entryDx=0;entryDy=0;" edge="1" parent="WIyWlLk6GJQsqaUBKTNV-1" source="9uUAbHtgEVjqh5BdNgfr-26" target="9uUAbHtgEVjqh5BdNgfr-28">
          <mxGeometry relative="1" as="geometry" />
        </mxCell>
        <mxCell id="9uUAbHtgEVjqh5BdNgfr-26" value="Console.Write(j + &quot; &quot;);" style="rounded=1;whiteSpace=wrap;html=1;" vertex="1" parent="WIyWlLk6GJQsqaUBKTNV-1">
          <mxGeometry x="300" y="850" width="120" height="60" as="geometry" />
        </mxCell>
        <mxCell id="9uUAbHtgEVjqh5BdNgfr-60" style="edgeStyle=orthogonalEdgeStyle;rounded=0;orthogonalLoop=1;jettySize=auto;html=1;exitX=0;exitY=0.5;exitDx=0;exitDy=0;entryX=0;entryY=0.5;entryDx=0;entryDy=0;" edge="1" parent="WIyWlLk6GJQsqaUBKTNV-1" source="9uUAbHtgEVjqh5BdNgfr-27" target="9uUAbHtgEVjqh5BdNgfr-29">
          <mxGeometry relative="1" as="geometry">
            <Array as="points">
              <mxPoint x="240" y="790" />
              <mxPoint x="240" y="1050" />
            </Array>
          </mxGeometry>
        </mxCell>
        <mxCell id="9uUAbHtgEVjqh5BdNgfr-63" style="edgeStyle=orthogonalEdgeStyle;rounded=0;orthogonalLoop=1;jettySize=auto;html=1;exitX=0.5;exitY=1;exitDx=0;exitDy=0;entryX=0.5;entryY=0;entryDx=0;entryDy=0;" edge="1" parent="WIyWlLk6GJQsqaUBKTNV-1" source="9uUAbHtgEVjqh5BdNgfr-27" target="9uUAbHtgEVjqh5BdNgfr-26">
          <mxGeometry relative="1" as="geometry" />
        </mxCell>
        <mxCell id="9uUAbHtgEVjqh5BdNgfr-27" value="while(j &amp;lt;= i)" style="rhombus;whiteSpace=wrap;html=1;" vertex="1" parent="WIyWlLk6GJQsqaUBKTNV-1">
          <mxGeometry x="320" y="750" width="80" height="80" as="geometry" />
        </mxCell>
        <mxCell id="9uUAbHtgEVjqh5BdNgfr-28" value="j++;" style="rounded=1;whiteSpace=wrap;html=1;" vertex="1" parent="WIyWlLk6GJQsqaUBKTNV-1">
          <mxGeometry x="300" y="930" width="120" height="60" as="geometry" />
        </mxCell>
        <mxCell id="9uUAbHtgEVjqh5BdNgfr-59" style="edgeStyle=orthogonalEdgeStyle;rounded=0;orthogonalLoop=1;jettySize=auto;html=1;exitX=1;exitY=0.25;exitDx=0;exitDy=0;" edge="1" parent="WIyWlLk6GJQsqaUBKTNV-1" source="9uUAbHtgEVjqh5BdNgfr-29" target="9uUAbHtgEVjqh5BdNgfr-23">
          <mxGeometry relative="1" as="geometry">
            <mxPoint x="550" y="1040" as="sourcePoint" />
            <mxPoint x="520" y="520" as="targetPoint" />
            <Array as="points">
              <mxPoint x="430" y="1040" />
              <mxPoint x="570" y="1040" />
              <mxPoint x="570" y="520" />
            </Array>
          </mxGeometry>
        </mxCell>
        <mxCell id="9uUAbHtgEVjqh5BdNgfr-29" value="i++;" style="rounded=1;whiteSpace=wrap;html=1;" vertex="1" parent="WIyWlLk6GJQsqaUBKTNV-1">
          <mxGeometry x="310" y="1020" width="120" height="60" as="geometry" />
        </mxCell>
        <mxCell id="9uUAbHtgEVjqh5BdNgfr-46" style="edgeStyle=orthogonalEdgeStyle;rounded=0;orthogonalLoop=1;jettySize=auto;html=1;" edge="1" parent="WIyWlLk6GJQsqaUBKTNV-1" source="9uUAbHtgEVjqh5BdNgfr-30" target="9uUAbHtgEVjqh5BdNgfr-43">
          <mxGeometry relative="1" as="geometry" />
        </mxCell>
        <mxCell id="9uUAbHtgEVjqh5BdNgfr-30" value="Console.ReadKey();" style="rounded=1;whiteSpace=wrap;html=1;" vertex="1" parent="WIyWlLk6GJQsqaUBKTNV-1">
          <mxGeometry x="160" y="500" width="120" height="60" as="geometry" />
        </mxCell>
        <mxCell id="9uUAbHtgEVjqh5BdNgfr-43" value="end" style="ellipse;whiteSpace=wrap;html=1;" vertex="1" parent="WIyWlLk6GJQsqaUBKTNV-1">
          <mxGeometry x="160" y="600" width="120" height="80" as="geometry" />
        </mxCell>
        <mxCell id="9uUAbHtgEVjqh5BdNgfr-53" style="edgeStyle=orthogonalEdgeStyle;rounded=0;orthogonalLoop=1;jettySize=auto;html=1;exitX=0.75;exitY=1;exitDx=0;exitDy=0;entryX=0.422;entryY=0.038;entryDx=0;entryDy=0;entryPerimeter=0;" edge="1" parent="WIyWlLk6GJQsqaUBKTNV-1" source="9uUAbHtgEVjqh5BdNgfr-20" target="9uUAbHtgEVjqh5BdNgfr-23">
          <mxGeometry relative="1" as="geometry" />
        </mxCell>
        <mxCell id="9uUAbHtgEVjqh5BdNgfr-54" style="edgeStyle=orthogonalEdgeStyle;rounded=0;orthogonalLoop=1;jettySize=auto;html=1;exitX=0.5;exitY=1;exitDx=0;exitDy=0;entryX=0.45;entryY=-0.017;entryDx=0;entryDy=0;entryPerimeter=0;" edge="1" parent="WIyWlLk6GJQsqaUBKTNV-1" source="9uUAbHtgEVjqh5BdNgfr-23" target="9uUAbHtgEVjqh5BdNgfr-24">
          <mxGeometry relative="1" as="geometry" />
        </mxCell>
        <mxCell id="9uUAbHtgEVjqh5BdNgfr-57" style="edgeStyle=orthogonalEdgeStyle;rounded=0;orthogonalLoop=1;jettySize=auto;html=1;exitX=1;exitY=0.5;exitDx=0;exitDy=0;entryX=0.95;entryY=0.425;entryDx=0;entryDy=0;entryPerimeter=0;" edge="1" parent="WIyWlLk6GJQsqaUBKTNV-1" source="9uUAbHtgEVjqh5BdNgfr-28" target="9uUAbHtgEVjqh5BdNgfr-27">
          <mxGeometry relative="1" as="geometry">
            <Array as="points">
              <mxPoint x="490" y="960" />
              <mxPoint x="490" y="784" />
            </Array>
          </mxGeometry>
        </mxCell>
        <mxCell id="9uUAbHtgEVjqh5BdNgfr-61" value="false" style="text;html=1;align=center;verticalAlign=middle;resizable=0;points=[];autosize=1;strokeColor=none;fillColor=none;" vertex="1" parent="WIyWlLk6GJQsqaUBKTNV-1">
          <mxGeometry x="285" y="478" width="50" height="30" as="geometry" />
        </mxCell>
        <mxCell id="9uUAbHtgEVjqh5BdNgfr-62" value="false" style="text;html=1;align=center;verticalAlign=middle;resizable=0;points=[];autosize=1;strokeColor=none;fillColor=none;" vertex="1" parent="WIyWlLk6GJQsqaUBKTNV-1">
          <mxGeometry x="255" y="758" width="50" height="30" as="geometry" />
        </mxCell>
        <mxCell id="9uUAbHtgEVjqh5BdNgfr-66" value="Text" style="text;html=1;align=center;verticalAlign=middle;resizable=0;points=[];autosize=1;strokeColor=none;fillColor=none;" vertex="1" parent="WIyWlLk6GJQsqaUBKTNV-1">
          <mxGeometry x="375" y="808" width="50" height="30" as="geometry" />
        </mxCell>
      </root>
    </mxGraphModel>
  </diagram>
</mxfile>
